<svg xmlns="http://www.w3.org/2000/svg" width="100%" height="auto" viewBox="120 670 230 350" preserveAspectRatio="xMidYMid meet">
  <path fill="currentColor" d="M278.29 738.72c-27.82-25.81-69.85-23.4-93.73 4.48-22.7 26.51-22.75 73.36 18.07 98.99-12.95 7.38-22.26 17.93-28.47 31.16-33.72-20.15-58.05-69.12-43.22-118.26 15.78-52.28 67.04-84.49 119.11-75.95 54.58 8.94 90.85 56.33 90.46 105.44h-42.21c-.87-17.47-6.77-33.11-20-45.86z"/>
  <path fill="currentColor" d="M168.13 899.69c.39 1.14 1.05 2.26 1.14 3.42 3.23 41.71 42.68 69.32 82.76 57.86 24.95-7.13 43.36-29.87 45.83-56.61 2.36-25.58-11.84-51.81-35.13-62.67-8.86-4.13-18.8-5.96-28.87-9.03v-41.53c9.01 1.39 17.99 1.84 26.42 4.24 38.78 11.02 64.7 35.78 76.19 74.59 13.67 46.18-6.66 96.71-48.1 121.17-54.82 32.34-124.88 10.66-151.84-47.05-6.13-13.12-9.54-26.94-9.76-41.48-.02-1.07.38-2.15.95-2.88.71.79 1.07 1.61 1.42 1.61 11.51-.06 23.03-.15 34.54-.38 1.49-.03 2.97-.82 4.46-1.26z"/>
  <path fill="currentColor" d="M211.7 865.67c16.45-9.65 34.42-8.51 47.64 2.8 12.99 11.11 17.74 29.36 11.69 44.86-6.17 15.78-21.24 25.9-38.06 25.55-16.98-.35-32.17-11.31-37.17-26.82-5.39-16.74-.16-33.92 13.61-44.68.65-.51 1.32-1 2.29-1.71z"/>
</svg>
